<mxfile host="65bd71144e" scale="3" border="0">
    <diagram id="_rZk1lXrrDO5BLT6cV8h" name="Page-1">
        <mxGraphModel dx="562" dy="350" grid="1" gridSize="10" guides="1" tooltips="1" connect="1" arrows="1" fold="1" page="1" pageScale="1" pageWidth="583" pageHeight="827" math="0" shadow="0">
            <root>
                <mxCell id="0"/>
                <mxCell id="1" parent="0"/>
                <mxCell id="8" style="edgeStyle=none;html=1;exitX=0.25;exitY=1;exitDx=0;exitDy=0;entryX=0;entryY=0.5;entryDx=0;entryDy=0;" edge="1" parent="1" source="6" target="7">
                    <mxGeometry relative="1" as="geometry">
                        <Array as="points">
                            <mxPoint x="180" y="120"/>
                        </Array>
                    </mxGeometry>
                </mxCell>
                <mxCell id="11" style="edgeStyle=none;html=1;exitX=0.25;exitY=1;exitDx=0;exitDy=0;entryX=0;entryY=0.5;entryDx=0;entryDy=0;" edge="1" parent="1" source="6" target="9">
                    <mxGeometry relative="1" as="geometry">
                        <Array as="points">
                            <mxPoint x="180" y="150"/>
                        </Array>
                    </mxGeometry>
                </mxCell>
                <mxCell id="12" style="edgeStyle=none;html=1;exitX=0.25;exitY=1;exitDx=0;exitDy=0;entryX=0;entryY=0.5;entryDx=0;entryDy=0;" edge="1" parent="1" source="6" target="10">
                    <mxGeometry relative="1" as="geometry">
                        <Array as="points">
                            <mxPoint x="180" y="180"/>
                        </Array>
                    </mxGeometry>
                </mxCell>
                <mxCell id="6" value="Scan" style="rounded=0;whiteSpace=wrap;html=1;fontFamily=Garamond;fontSize=16;fillColor=none;spacing=1;strokeColor=#CC0000;" vertex="1" parent="1">
                    <mxGeometry x="160" y="80" width="80" height="20" as="geometry"/>
                </mxCell>
                <mxCell id="7" value="BreastScan" style="rounded=0;whiteSpace=wrap;html=1;fontFamily=Garamond;fontSize=16;fillColor=none;spacing=1;strokeColor=#0000CC;" vertex="1" parent="1">
                    <mxGeometry x="200" y="110" width="80" height="20" as="geometry"/>
                </mxCell>
                <mxCell id="9" value="ChestScan" style="rounded=0;whiteSpace=wrap;html=1;fontFamily=Garamond;fontSize=16;fillColor=none;spacing=1;strokeColor=#0000CC;" vertex="1" parent="1">
                    <mxGeometry x="200" y="140" width="80" height="20" as="geometry"/>
                </mxCell>
                <mxCell id="10" value="LegScan" style="rounded=0;whiteSpace=wrap;html=1;fontFamily=Garamond;fontSize=16;fillColor=none;spacing=1;strokeColor=#0000CC;" vertex="1" parent="1">
                    <mxGeometry x="200" y="170" width="80" height="20" as="geometry"/>
                </mxCell>
                <mxCell id="13" value="&lt;b&gt;.&lt;br&gt;.&lt;br&gt;.&lt;/b&gt;" style="text;html=1;strokeColor=none;fillColor=none;align=center;verticalAlign=middle;whiteSpace=wrap;rounded=0;fontFamily=Garamond;" vertex="1" parent="1">
                    <mxGeometry x="210" y="202" width="60" height="30" as="geometry"/>
                </mxCell>
                <mxCell id="15" value="" style="shape=curlyBracket;whiteSpace=wrap;html=1;rounded=1;flipH=1;labelPosition=right;verticalLabelPosition=middle;align=left;verticalAlign=middle;" vertex="1" parent="1">
                    <mxGeometry x="292" y="140" width="20" height="100" as="geometry"/>
                </mxCell>
                <mxCell id="16" value="Future&lt;br style=&quot;font-size: 14px;&quot;&gt;Types" style="text;html=1;strokeColor=none;fillColor=none;align=center;verticalAlign=middle;whiteSpace=wrap;rounded=0;fontFamily=Garamond;fontSize=14;" vertex="1" parent="1">
                    <mxGeometry x="300" y="175" width="60" height="30" as="geometry"/>
                </mxCell>
            </root>
        </mxGraphModel>
    </diagram>
</mxfile>